<svg width="176" height="42" viewBox="0 0 176 42" fill="none" xmlns="http://www.w3.org/2000/svg">
<path opacity="0.5" d="M40.0652 2.25671L30.2601 36.9917C30.2102 37.1494 30.0108 37.1967 29.8945 37.0863L23.3301 30.8583L28.2492 13.4514C28.2991 13.2937 28.1495 13.1518 27.9833 13.1991L9.63617 17.8662L3.10498 11.6697C2.98865 11.5593 3.03851 11.3701 3.20469 11.3228L39.7993 2.00444C39.9655 1.97291 40.115 2.11481 40.0652 2.25671Z" fill="#00B37E"/>
<path opacity="0.5" d="M23.3297 30.858L20.8037 39.8452C20.7538 40.0029 20.5544 40.0502 20.4381 39.9398L0.0634003 20.6251C-0.0529313 20.5147 -0.00307518 20.3255 0.163113 20.2782L9.63583 17.8658L23.3297 30.858Z" fill="#00B37E"/>
<path d="M28.2484 13.4511L23.3292 30.858L9.63533 17.8659L27.9825 13.1988C28.1487 13.1515 28.2982 13.2934 28.2484 13.4511Z" fill="#00B37E"/>
<path d="M59.4013 11.3104H62.5745L67.2468 24.6653L71.9192 11.3104H75.0923L68.5211 29.5H65.9726L59.4013 11.3104ZM57.6898 11.3104H60.8505L61.4252 24.328V29.5H57.6898V11.3104ZM73.6432 11.3104H76.8163V29.5H73.0685V24.328L73.6432 11.3104ZM79.3024 22.8788V22.6164C79.3024 21.6253 79.444 20.7134 79.7272 19.8805C80.0104 19.0393 80.4226 18.3106 80.964 17.6943C81.5053 17.078 82.1716 16.5991 82.9628 16.2576C83.754 15.9078 84.6618 15.7329 85.6863 15.7329C86.7107 15.7329 87.6227 15.9078 88.4222 16.2576C89.2217 16.5991 89.8922 17.078 90.4335 17.6943C90.9832 18.3106 91.3997 19.0393 91.6828 19.8805C91.966 20.7134 92.1076 21.6253 92.1076 22.6164V22.8788C92.1076 23.8616 91.966 24.7735 91.6828 25.6147C91.3997 26.4476 90.9832 27.1763 90.4335 27.801C89.8922 28.4173 89.2259 28.8962 88.4347 29.2377C87.6435 29.5791 86.7357 29.7499 85.7112 29.7499C84.6868 29.7499 83.7749 29.5791 82.9753 29.2377C82.1841 28.8962 81.5137 28.4173 80.964 27.801C80.4226 27.1763 80.0104 26.4476 79.7272 25.6147C79.444 24.7735 79.3024 23.8616 79.3024 22.8788ZM82.9004 22.6164V22.8788C82.9004 23.4451 82.9503 23.974 83.0503 24.4654C83.1502 24.9568 83.3085 25.3899 83.525 25.7646C83.7499 26.1311 84.0414 26.4184 84.3995 26.6266C84.7576 26.8349 85.1949 26.939 85.7112 26.939C86.211 26.939 86.6399 26.8349 86.998 26.6266C87.3561 26.4184 87.6435 26.1311 87.86 25.7646C88.0766 25.3899 88.2348 24.9568 88.3347 24.4654C88.443 23.974 88.4971 23.4451 88.4971 22.8788V22.6164C88.4971 22.0668 88.443 21.5504 88.3347 21.0673C88.2348 20.576 88.0724 20.1429 87.8475 19.7681C87.631 19.385 87.3436 19.0851 86.9855 18.8686C86.6274 18.6521 86.1943 18.5438 85.6863 18.5438C85.1782 18.5438 84.7451 18.6521 84.387 18.8686C84.0372 19.0851 83.7499 19.385 83.525 19.7681C83.3085 20.1429 83.1502 20.576 83.0503 21.0673C82.9503 21.5504 82.9004 22.0668 82.9004 22.6164ZM97.8418 18.8686V29.5H94.2439V15.9828H97.6169L97.8418 18.8686ZM97.3171 22.2666H96.3426C96.3426 21.2672 96.4717 20.3677 96.7299 19.5682C96.9881 18.7603 97.3504 18.0732 97.8168 17.5069C98.2832 16.9322 98.8371 16.495 99.4784 16.1951C100.128 15.887 100.853 15.7329 101.652 15.7329C102.285 15.7329 102.864 15.8245 103.389 16.0077C103.913 16.191 104.363 16.4825 104.738 16.8822C105.121 17.282 105.412 17.8109 105.612 18.4688C105.821 19.1268 105.925 19.9305 105.925 20.8799V29.5H102.302V20.8675C102.302 20.2678 102.218 19.8014 102.052 19.4683C101.885 19.1351 101.64 18.9019 101.315 18.7687C100.998 18.6271 100.607 18.5563 100.14 18.5563C99.6574 18.5563 99.2368 18.6521 98.8787 18.8436C98.5289 19.0352 98.2374 19.3017 98.0042 19.6432C97.7793 19.9763 97.6086 20.3677 97.492 20.8175C97.3754 21.2672 97.3171 21.7503 97.3171 22.2666ZM114.882 29.7499C113.833 29.7499 112.891 29.5833 112.059 29.2501C111.226 28.9087 110.518 28.4381 109.935 27.8385C109.36 27.2388 108.919 26.5434 108.611 25.7521C108.302 24.9526 108.148 24.1031 108.148 23.2036V22.7039C108.148 21.6795 108.294 20.7425 108.586 19.893C108.877 19.0435 109.294 18.3064 109.835 17.6818C110.385 17.0571 111.051 16.5782 111.834 16.2451C112.617 15.9036 113.499 15.7329 114.482 15.7329C115.44 15.7329 116.29 15.8911 117.031 16.2076C117.772 16.5241 118.393 16.9739 118.892 17.5569C119.4 18.1398 119.783 18.8394 120.042 19.6556C120.3 20.4635 120.429 21.363 120.429 22.3541V23.8532H109.685V21.4546H116.893V21.1798C116.893 20.6801 116.802 20.2345 116.619 19.843C116.444 19.4433 116.177 19.1268 115.819 18.8936C115.461 18.6604 115.003 18.5438 114.445 18.5438C113.97 18.5438 113.562 18.6479 113.22 18.8561C112.879 19.0643 112.6 19.3558 112.383 19.7306C112.175 20.1054 112.017 20.5468 111.909 21.0548C111.809 21.5546 111.759 22.1042 111.759 22.7039V23.2036C111.759 23.745 111.834 24.2447 111.984 24.7028C112.142 25.1608 112.363 25.5564 112.646 25.8896C112.937 26.2227 113.287 26.4809 113.695 26.6641C114.112 26.8474 114.582 26.939 115.107 26.939C115.757 26.939 116.36 26.814 116.918 26.5642C117.485 26.306 117.972 25.9187 118.38 25.4024L120.129 27.3013C119.846 27.7094 119.459 28.1008 118.967 28.4756C118.484 28.8504 117.901 29.1585 117.218 29.4001C116.535 29.6333 115.757 29.7499 114.882 29.7499ZM126.313 27.9759L129.898 15.9828H133.759L128.324 31.5363C128.208 31.8778 128.049 32.2443 127.85 32.6357C127.658 33.0271 127.396 33.3978 127.063 33.7476C126.738 34.1057 126.325 34.3972 125.826 34.6221C125.334 34.8469 124.731 34.9594 124.014 34.9594C123.673 34.9594 123.394 34.9385 123.177 34.8969C122.961 34.8553 122.703 34.797 122.403 34.722V32.086C122.494 32.086 122.59 32.086 122.69 32.086C122.79 32.0943 122.886 32.0985 122.977 32.0985C123.452 32.0985 123.839 32.0444 124.139 31.9361C124.439 31.8278 124.681 31.6613 124.864 31.4364C125.047 31.2198 125.193 30.9367 125.301 30.5869L126.313 27.9759ZM124.814 15.9828L127.75 25.7771L128.262 29.5874L125.813 29.8498L120.954 15.9828H124.814ZM143.003 26.5517V10.311H146.626V29.5H143.366L143.003 26.5517ZM134.458 22.9038V22.6414C134.458 21.6087 134.575 20.6717 134.808 19.8305C135.041 18.981 135.383 18.2523 135.833 17.6443C136.282 17.0363 136.836 16.5658 137.494 16.2326C138.152 15.8995 138.902 15.7329 139.743 15.7329C140.534 15.7329 141.225 15.8995 141.817 16.2326C142.416 16.5658 142.924 17.0405 143.341 17.6568C143.765 18.2648 144.107 18.9852 144.365 19.8181C144.623 20.6426 144.811 21.5462 144.927 22.529V23.1037C144.811 24.0448 144.623 24.9193 144.365 25.7272C144.107 26.535 143.765 27.243 143.341 27.8509C142.924 28.4506 142.416 28.917 141.817 29.2501C141.217 29.5833 140.517 29.7499 139.718 29.7499C138.877 29.7499 138.127 29.5791 137.469 29.2377C136.819 28.8962 136.27 28.4173 135.82 27.801C135.379 27.1847 135.041 26.4601 134.808 25.6272C134.575 24.7944 134.458 23.8866 134.458 22.9038ZM138.056 22.6414V22.9038C138.056 23.4618 138.098 23.9823 138.181 24.4654C138.273 24.9484 138.419 25.3774 138.618 25.7521C138.827 26.1186 139.093 26.4059 139.418 26.6142C139.751 26.814 140.155 26.914 140.63 26.914C141.246 26.914 141.754 26.7766 142.154 26.5017C142.554 26.2185 142.858 25.8313 143.066 25.3399C143.282 24.8485 143.407 24.2822 143.441 23.6409V22.0043C143.416 21.4796 143.341 21.009 143.216 20.5926C143.099 20.1679 142.924 19.8056 142.691 19.5057C142.466 19.2059 142.183 18.9727 141.842 18.8061C141.508 18.6396 141.113 18.5563 140.655 18.5563C140.188 18.5563 139.789 18.6645 139.455 18.8811C139.122 19.0893 138.852 19.3766 138.643 19.7431C138.444 20.1096 138.294 20.5426 138.194 21.0424C138.102 21.5337 138.056 22.0668 138.056 22.6414ZM155.659 29.7499C154.609 29.7499 153.668 29.5833 152.835 29.2501C152.002 28.9087 151.294 28.4381 150.711 27.8385C150.137 27.2388 149.695 26.5434 149.387 25.7521C149.079 24.9526 148.925 24.1031 148.925 23.2036V22.7039C148.925 21.6795 149.071 20.7425 149.362 19.893C149.654 19.0435 150.07 18.3064 150.612 17.6818C151.161 17.0571 151.827 16.5782 152.61 16.2451C153.393 15.9036 154.276 15.7329 155.259 15.7329C156.217 15.7329 157.066 15.8911 157.807 16.2076C158.549 16.5241 159.169 16.9739 159.669 17.5569C160.177 18.1398 160.56 18.8394 160.818 19.6556C161.076 20.4635 161.205 21.363 161.205 22.3541V23.8532H150.462V21.4546H157.67V21.1798C157.67 20.6801 157.578 20.2345 157.395 19.843C157.22 19.4433 156.954 19.1268 156.596 18.8936C156.237 18.6604 155.779 18.5438 155.221 18.5438C154.747 18.5438 154.339 18.6479 153.997 18.8561C153.656 19.0643 153.377 19.3558 153.16 19.7306C152.952 20.1054 152.794 20.5468 152.685 21.0548C152.585 21.5546 152.535 22.1042 152.535 22.7039V23.2036C152.535 23.745 152.61 24.2447 152.76 24.7028C152.919 25.1608 153.139 25.5564 153.422 25.8896C153.714 26.2227 154.064 26.4809 154.472 26.6641C154.888 26.8474 155.359 26.939 155.884 26.939C156.533 26.939 157.137 26.814 157.695 26.5642C158.261 26.306 158.749 25.9187 159.157 25.4024L160.906 27.3013C160.622 27.7094 160.235 28.1008 159.744 28.4756C159.261 28.8504 158.678 29.1585 157.995 29.4001C157.312 29.6333 156.533 29.7499 155.659 29.7499ZM167.677 26.8765L170.675 15.9828H174.435L169.875 29.5H167.602L167.677 26.8765ZM165.615 15.9828L168.626 26.889L168.689 29.5H166.402L161.843 15.9828H165.615Z" fill="#E1E1E6"/>
</svg>
